<?xml version="1.0" encoding="utf-8"?>
<!-- Generator: Adobe Illustrator 25.4.1, SVG Export Plug-In . SVG Version: 6.00 Build 0)  -->
<svg version="1.1" id="Layer_1" xmlns="http://www.w3.org/2000/svg" xmlns:xlink="http://www.w3.org/1999/xlink" x="0px" y="0px"
	 viewBox="0 0 1200 1200" style="enable-background:new 0 0 1200 1200;" xml:space="preserve">
<style type="text/css">
	.st0{fill:#FFBF00;}
	.st1{fill:#D89500;}
	.st2{fill:#222222;}
	.st3{fill:#FFFFFF;}
</style>
<g>
	<g>
		<g>
			<path class="st0" d="M890.6,29.7H309.4c-154.4,0-279.6,125.2-279.6,279.6v581.3c0,154.4,125.2,279.6,279.6,279.6h581.3
				c154.4,0,279.6-125.2,279.6-279.6V309.4C1170.3,154.9,1045.1,29.7,890.6,29.7z"/>
			<path class="st1" d="M853.7,1106.6h1.8c94.9,0,172.1-97.5,172.1-217.3V310.7c0-119.8-77.2-217.3-172.1-217.3h-1.8l20.9-74h1.8
				c127.4,0,230.7,130.4,230.7,291.3v578.6c0,160.9-103.3,291.3-230.7,291.3h-1.8L853.7,1106.6z"/>
			<path class="st1" d="M325.4,1106.6h19.1c-94.9,0-172.1-97.5-172.1-217.3V310.7c0-119.8,77.2-217.3,172.1-217.3h-19.1v-74h-1.8
				c-127.4,0-230.7,130.4-230.7,291.3v578.6c0,160.9,103.3,291.3,230.7,291.3h1.8V1106.6z"/>
			<g>
				<path class="st2" d="M599,984.5c-102.9,0-193.2-78.3-214.9-186.3c-1.1-5.7-0.8-11.6,1.1-17.1c1.8-5.5,5.1-10.5,9.4-14.4
					c4.3-3.9,9.6-6.6,15.3-7.8c5.7-1.2,11.6-1,17.1,0.7c47.9,15,118,34.8,173.1,34.8c59,0,102.7-18.4,148.9-37.9
					c7.1-3,14.2-6,21.4-8.9c5.5-2.2,11.4-3,17.2-2.2c5.8,0.8,11.4,3.1,16,6.7c4.7,3.6,8.3,8.4,10.5,13.9c2.2,5.5,3,11.4,2.1,17.3
					C800.2,898.1,706.9,984.5,599,984.5z"/>
				<path class="st3" d="M686.1,877.4c9.9,0,16,11.3,10.1,19.2c-8.8,12-19.8,22.3-32.6,30.3c-19.1,12-41.2,18.4-63.7,18.4
					c-22.5,0-44.6-6.4-63.7-18.4c-12.7-8-23.7-18.3-32.6-30.3c-5.8-8,0.2-19.2,10.1-19.2H686.1z"/>
			</g>
			<path class="st2" d="M894.6,0H305.4C137,0,0,137,0,305.4v589.2C0,1063,137,1200,305.4,1200h589.2c168.4,0,305.4-137,305.4-305.4
				V305.4C1200,137,1063,0,894.6,0z M1107.1,894.6c0,117.2-95.3,212.5-212.5,212.5H305.4c-117.2,0-212.5-95.3-212.5-212.5V305.4
				c0-117.2,95.3-212.5,212.5-212.5h66.7c31.4,0,56.9,25.5,56.9,57v0c0,0,0,0,0,0v50.3c0,31.5,25.5,57,57,57c31.5,0,57-25.5,57-57
				v-50.4c0,0,0,0.1,0,0.1l0-0.1c0.1-31.4,25.5-56.9,57-56.9h0.1c31.4,0,56.9,25.5,56.9,57l0,134.6c0,31.5,25.5,57,57,57
				c31.5,0,57-25.5,57-57l0.1-134.6c0-31.5,25.5-57,57-57h66.7c117.2,0,212.5,95.3,212.5,212.5V894.6z"/>
		</g>
	</g>
	<g>
		<path class="st2" d="M827.8,397.2c-2.5,0-5.1,0.2-7.6,0.5c0,0,0,0,0,0c0,0,0,0,0,0c-0.2,0-0.4,0-0.5,0c-0.7,0.1-1.3,0.4-1.7,0.6
			c-1.3,0.6-1.5,1.6-1.5,3.1c0,1.2,0.6,2.1,1.4,2.8c0.1,0.1,0.1,0.2,0.3,0.3c15.5,9.9,24.8,28.8,20.4,49.3
			c-3.9,18.3-19.4,32.9-37.9,35.8c-19.1,3-35.1-3.8-44.6-18.1c-0.1-0.1-0.9-1.5-3-1.5c-3.1,0-3.6,2.7-3.7,3
			c-2.1,8.9-2.7,15.9-2.7,25.6c0,56,36.4,101.3,81.1,101.3c44.9,0,81.3-45.4,81.3-101.3C909.1,442.5,872.7,397.2,827.8,397.2z"/>
	</g>
	<path class="st2" d="M372,397.2c-2.5,0-5.1,0.2-7.6,0.5c0,0,0,0,0,0c0,0,0,0,0,0c-0.2,0-0.4,0-0.5,0c-0.7,0.1-1.3,0.4-1.7,0.6
		c-1.3,0.6-1.5,1.6-1.5,3.1c0,1.2,0.6,2.1,1.4,2.8c0.1,0.1,0.1,0.2,0.3,0.3c15.5,9.9,24.8,28.8,20.4,49.3
		c-3.9,18.3-19.4,32.9-37.9,35.8c-19.1,3-35.1-3.8-44.6-18.1c-0.1-0.1-0.9-1.5-3-1.5c-3.1,0-3.6,2.7-3.7,3
		c-2.1,8.9-2.7,15.9-2.7,25.6c0,56,36.4,101.3,81.1,101.3c44.9,0,81.3-45.4,81.3-101.3C453.3,442.5,416.9,397.2,372,397.2z"/>
</g>
</svg>
