<?xml version="1.0" encoding="utf-8"?>
<!-- Generator: Adobe Illustrator 25.4.1, SVG Export Plug-In . SVG Version: 6.00 Build 0)  -->
<svg version="1.1" id="Layer_1" xmlns="http://www.w3.org/2000/svg" xmlns:xlink="http://www.w3.org/1999/xlink" x="0px" y="0px"
	 viewBox="0 0 1200 208.1" style="enable-background:new 0 0 1200 208.1;" xml:space="preserve">
<style type="text/css">
	.st0{fill:#FFBF00;}
	.st1{fill:#D89500;}
	.st2{fill:#222222;}
	.st3{fill:#FFFFFF;}
	.st4{fill:#FDBE10;}
</style>
<g>
	<g>
		<g>
			<g>
				<path class="st0" d="M154.5,5.2H53.7C26.9,5.2,5.2,26.9,5.2,53.7v100.8c0,26.8,21.7,48.5,48.5,48.5h100.8
					c26.8,0,48.5-21.7,48.5-48.5V53.7C203,26.9,181.3,5.2,154.5,5.2z"/>
				<path class="st1" d="M148.1,191.9h0.3c16.5,0,29.9-16.9,29.9-37.7V53.9c0-20.8-13.4-37.7-29.9-37.7h-0.3l3.6-12.8h0.3
					c22.1,0,40,22.6,40,50.5v100.4c0,27.9-17.9,50.5-40,50.5h-0.3L148.1,191.9z"/>
				<path class="st1" d="M56.4,191.9h3.3c-16.5,0-29.9-16.9-29.9-37.7V53.9c0-20.8,13.4-37.7,29.9-37.7h-3.3V3.4h-0.3
					c-22.1,0-40,22.6-40,50.5v100.4c0,27.9,17.9,50.5,40,50.5h0.3V191.9z"/>
				<g>
					<path class="st2" d="M103.9,170.8c-17.8,0-33.5-13.6-37.3-32.3c-0.2-1-0.1-2,0.2-3c0.3-1,0.9-1.8,1.6-2.5
						c0.7-0.7,1.7-1.1,2.6-1.4c1-0.2,2-0.2,3,0.1c8.3,2.6,20.5,6,30,6c10.2,0,17.8-3.2,25.8-6.6c1.2-0.5,2.5-1,3.7-1.5
						c0.9-0.4,2-0.5,3-0.4c1,0.1,2,0.5,2.8,1.2c0.8,0.6,1.4,1.5,1.8,2.4c0.4,0.9,0.5,2,0.4,3C138.8,155.8,122.6,170.8,103.9,170.8z"
						/>
					<path class="st3" d="M119,152.2c1.7,0,2.8,2,1.8,3.3c-1.5,2.1-3.4,3.9-5.6,5.3c-3.3,2.1-7.1,3.2-11,3.2c-3.9,0-7.7-1.1-11-3.2
						c-2.2-1.4-4.1-3.2-5.6-5.3c-1-1.4,0-3.3,1.8-3.3H119z"/>
				</g>
				<path class="st2" d="M155.2,0H53C23.8,0,0,23.8,0,53v102.2c0,29.2,23.8,53,53,53h102.2c29.2,0,53-23.8,53-53V53
					C208.1,23.8,184.4,0,155.2,0z M192,155.2c0,20.3-16.5,36.9-36.9,36.9H53c-20.3,0-36.9-16.5-36.9-36.9V53
					c0-20.3,16.5-36.9,36.9-36.9h11.6c5.4,0,9.9,4.4,9.9,9.9v0c0,0,0,0,0,0v8.7c0,5.5,4.4,9.9,9.9,9.9c5.5,0,9.9-4.4,9.9-9.9V26
					c0,0,0,0,0,0l0,0c0-5.5,4.4-9.9,9.9-9.9h0c5.4,0,9.9,4.4,9.9,9.9l0,23.3c0,5.5,4.4,9.9,9.9,9.9c5.5,0,9.9-4.4,9.9-9.9l0-23.3
					c0-5.5,4.4-9.9,9.9-9.9h11.6c20.3,0,36.9,16.5,36.9,36.9V155.2z"/>
			</g>
		</g>
		<g>
			<path class="st2" d="M143.6,68.9c-0.4,0-0.9,0-1.3,0.1c0,0,0,0,0,0c0,0,0,0,0,0c0,0-0.1,0-0.1,0c-0.1,0-0.2,0.1-0.3,0.1
				c-0.2,0.1-0.3,0.3-0.3,0.5c0,0.2,0.1,0.4,0.2,0.5c0,0,0,0,0.1,0.1c2.7,1.7,4.3,5,3.5,8.5c-0.7,3.2-3.4,5.7-6.6,6.2
				c-3.3,0.5-6.1-0.7-7.7-3.1c0,0-0.2-0.3-0.5-0.3c-0.5,0-0.6,0.5-0.6,0.5c-0.4,1.5-0.5,2.8-0.5,4.4c0,9.7,6.3,17.6,14.1,17.6
				c7.8,0,14.1-7.9,14.1-17.6C157.7,76.8,151.4,68.9,143.6,68.9z"/>
		</g>
		<path class="st2" d="M64.5,68.9c-0.4,0-0.9,0-1.3,0.1c0,0,0,0,0,0c0,0,0,0,0,0c0,0-0.1,0-0.1,0c-0.1,0-0.2,0.1-0.3,0.1
			c-0.2,0.1-0.3,0.3-0.3,0.5c0,0.2,0.1,0.4,0.2,0.5c0,0,0,0,0.1,0.1c2.7,1.7,4.3,5,3.5,8.5c-0.7,3.2-3.4,5.7-6.6,6.2
			c-3.3,0.5-6.1-0.7-7.7-3.1c0,0-0.2-0.3-0.5-0.3c-0.5,0-0.6,0.5-0.6,0.5c-0.4,1.5-0.5,2.8-0.5,4.4c0,9.7,6.3,17.6,14.1,17.6
			c7.8,0,14.1-7.9,14.1-17.6C78.6,76.8,72.3,68.9,64.5,68.9z"/>
	</g>
	<g>
		<path class="st4" d="M540,70.9c-7.4,0-11.2,4.8-13.1,9.6l-21.6,57.7l-21.2-57.3c-2-5.7-6.1-10-13.6-10c-7.6,0-13.6,6.5-13.6,13.1
			c0,2.6,0.7,5,1.5,6.8l30.2,69.9c3.1,7.4,8.3,12.2,15.8,12.2h1.5c7.6,0,12.7-5,15.9-12.2L552,90.8c0.6-1.3,1.5-4.2,1.5-6.6
			C553.5,76.6,547.4,70.9,540,70.9z"/>
		<path class="st4" d="M1010.4,95.9c6.6,0,12-5.3,12-12c0-6.6-5.3-12-12-12H998V59.6c0-7.7-6.3-14-14-14c-7.7,0-14,6.3-14,14V72
			h-0.9c-6.6,0-12,5.3-12,12c0,6.6,5.3,12,12,12h0.9v46.8c0,22.9,11.6,29.7,28.8,29.7c6.1,0,10.9-0.7,16-2.8
			c3.9-1.5,7.2-5.5,7.2-10.5c0-6.5-5.3-11.6-11.6-11.6c-0.6,0-2.4,0.2-3.3,0.2c-6.3,0-9-3.1-9-9.6V95.9H1010.4z"/>
		<path class="st4" d="M429.6,70.9c-7.7,0-14,6.3-14,14v73c0,7.7,6.3,14,14,14c7.7,0,14-6.3,14-14v-73
			C443.6,77.1,437.3,70.9,429.6,70.9z"/>
		<path class="st4" d="M382.1,96.5h-32.4c-6.8,0-12.3,5.5-12.3,12.3c0,6.8,5.5,12.2,12.3,12.2h19.2v18.4c-7.2,5.2-16.4,7.7-26.7,7.7
			c-22.9,0-39.1-17.3-39.1-40.9v-0.4c0-21.9,16.4-40.2,37-40.2c12.2,0,20.5,3.3,28.2,8.8c2,1.5,4.6,2.9,8.7,2.9c7.7,0,14-6.3,14-14
			c0-5.5-3.1-9.4-5.9-11.4c-11.6-8.1-24.5-12.5-44-12.5c-39.1,0-67.6,30-67.6,66.7v0.4c0,38.2,27.6,66.4,67.8,66.4
			c19.4,0,34.6-6.5,45.2-12.9c6.8-4.1,10-9.8,10-18.1v-31.3C396.3,102.8,390,96.5,382.1,96.5z"/>
		<path class="st4" d="M1186.4,70.9c-8.3,0-14.9,8.8-19,18.4v-4.4c0-7.7-6.3-14-14-14c-7.7,0-14,6.3-14,14v73c0,7.7,6.3,14,14,14
			c7.7,0,14-6.3,14-14v-26.2c0-19.9,7.9-30.8,22.1-34.1c5.7-1.3,10.5-5.7,10.5-13.1C1200,76.6,1195,70.9,1186.4,70.9z"/>
		<path class="st4" d="M429.6,35.3c-8.8,0-15.7,5-15.7,13.1v0.4c0,8.1,6.8,13.3,15.7,13.3c8.8,0,15.7-5.2,15.7-13.3v-0.4
			C445.2,40.3,438.4,35.3,429.6,35.3z"/>
		<path class="st4" d="M862.6,70.9c-7.7,0-14,6.3-14,14v42.2c0,13.3-6.8,20.1-17.5,20.1c-10.7,0-17-6.8-17-20.1V84.9
			c0-7.7-6.3-14-14-14c-7.7,0-14,6.3-14,14v51.1c0,22.7,12.3,36.7,33.5,36.7c14.2,0,22.5-7.6,28.9-15.9v1.1c0,7.7,6.3,14,14,14
			c7.7,0,14-6.3,14-14v-73C876.6,77.1,870.4,70.9,862.6,70.9z"/>
		<path class="st4" d="M940.3,95.9c6.6,0,12-5.3,12-12c0-6.6-5.3-12-12-12h-12.3V59.6c0-7.7-6.3-14-14-14c-7.7,0-14,6.3-14,14V72
			H899c-6.6,0-12,5.3-12,12c0,6.6,5.3,12,12,12h0.9v46.8c0,22.9,11.6,29.7,28.8,29.7c6.1,0,10.9-0.7,16-2.8
			c3.9-1.5,7.2-5.5,7.2-10.5c0-6.5-5.3-11.6-11.6-11.6c-0.6,0-2.4,0.2-3.3,0.2c-6.3,0-9-3.1-9-9.6V95.9H940.3z"/>
		<path class="st4" d="M1076.8,70.1c-0.1,0-0.2,0-0.3,0c-28.6,0.1-48.6,23.3-48.6,51.4v0.4c0,29.2,20.4,49.6,48.6,51
			c1,0,2,0.1,3,0.1c14.4,0,25.6-4.6,34.3-12c2-1.8,3.7-4.6,3.7-8.3c0-6.3-4.6-11.1-10.9-11.1c-2.9,0-4.8,0.7-6.8,2.2
			c-5.7,4.2-12.2,6.6-19.9,6.6c-1.2,0-2.3-0.1-3.4-0.2c-10.7-1.1-18.2-7.6-20.7-19.2h20.7h34.7c7.4,0,13.1-5.3,13.1-13.5
			C1124.4,97.2,1109.8,70.1,1076.8,70.1z M1076.5,113.6h-21.1c2.2-12.6,9.6-20.9,21.1-21c0.1,0,0.2,0,0.3,0c11.8,0,19.2,8.5,20.8,21
			H1076.5z"/>
		<path class="st4" d="M727.6,70.1c-2.5,0-4.9,0.2-7.1,0.6c-10.6,1.8-18,7.8-23.7,15.4v-37c0-7.7-6.3-14-14-14c-7.7,0-14,6.3-14,14
			v108.7c0,7.7,6.3,14,14,14c7.7,0,14-6.3,14-13.9v-0.2c5.5,6.6,12.8,12.4,23.7,14.2c2.2,0.4,4.6,0.6,7.1,0.6
			c23.4,0,45-18.1,45-51.1v-0.4C772.6,88.2,750.7,70.1,727.6,70.1z M744.6,121.6c0,16.5-11,27.2-24.1,27.3l-0.1,0
			c-13.1,0-24-10.9-24-27.3v-0.4c0-16.4,10.9-27.3,24-27.3l0.1,0c13,0.1,24.1,10.9,24.1,27.3V121.6z"/>
		<path class="st4" d="M606.3,70.1c-0.1,0-0.2,0-0.3,0c-28.6,0.1-48.6,23.3-48.6,51.4v0.4c0,29.2,20.4,49.6,48.6,51c1,0,2,0.1,3,0.1
			c14.4,0,25.6-4.6,34.3-12c2-1.8,3.7-4.6,3.7-8.3c0-6.3-4.6-11.1-10.9-11.1c-2.9,0-4.8,0.7-6.8,2.2c-5.7,4.2-12.2,6.6-19.9,6.6
			c-1.2,0-2.3-0.1-3.4-0.2c-10.7-1.1-18.2-7.6-20.7-19.2H606h34.7c7.4,0,13.1-5.3,13.1-13.5C653.8,97.2,639.3,70.1,606.3,70.1z
			 M606,113.6h-21.1c2.2-12.6,9.6-20.9,21.1-21c0.1,0,0.2,0,0.3,0c11.8,0,19.2,8.5,20.8,21H606z"/>
	</g>
</g>
</svg>
